# MagicaVoxel @ Ephtracy

# group
g oldman

# material
mtllib oldman.mtl
usemtl palette

# normals
vn -1 0 0
vn 1 0 0
vn 0 0 1
vn 0 0 -1
vn 0 -1 0
vn 0 1 0

# texcoords
vt 0.00195313 0.5
vt 0.0332031 0.5
vt 0.0605469 0.5
vt 0.142578 0.5
vt 0.310547 0.5
vt 0.365234 0.5
vt 0.521484 0.5
vt 0.533203 0.5
vt 0.611328 0.5
vt 0.634766 0.5
vt 0.646484 0.5
vt 0.978516 0.5
vt 0.982422 0.5
vt 0.986328 0.5
vt 0.994141 0.5

# verts
v -4 4 -1
v -4 4 -2
v -4 5 1
v -4 5 -1
v -4 5 -2
v -4 6 1
v -4 6 -1
v -4 9 -2
v -4 9 -3
v -4 10 -2
v -4 10 -3
v -3 1 3
v -3 1 -2
v -3 4 -1
v -3 4 -2
v -3 4 -3
v -3 5 1
v -3 5 -1
v -3 5 -2
v -3 5 -3
v -3 6 1
v -3 6 -1
v -3 7 3
v -3 7 -2
v -3 9 -2
v -3 10 -2
v -3 12 3
v -3 12 -2
v -2 0 1
v -2 0 -0
v -2 0 -2
v -2 0 -3
v -2 1 1
v -2 1 -0
v -2 1 -2
v -2 1 -3
v -2 3 -2
v -2 3 -3
v -2 4 -2
v -2 4 -3
v -2 5 -2
v -2 5 -3
v -2 7 -2
v -2 7 -3
v -2 12 2
v -2 12 -1
v -2 13 2
v -2 13 -1
v -1 7 -2
v -1 7 -3
v -1 8 -2
v -1 8 -3
v 1 0 1
v 1 0 -0
v 1 1 1
v 1 1 -0
v 1 4 4
v 1 4 3
v 1 5 4
v 1 5 3
v 1 9 -2
v 1 9 -3
v 1 10 -2
v 1 10 -3
v -1 0 1
v -1 0 -0
v -1 0 -2
v -1 0 -3
v -1 1 1
v -1 1 -0
v -1 1 -2
v -1 1 -3
v -1 3 -2
v -1 3 -3
v -1 4 -2
v -1 4 -3
v -1 9 -2
v -1 9 -3
v -1 10 -2
v -1 10 -3
v 1 4 -2
v 1 4 -3
v 1 5 -2
v 1 5 -3
v 1 7 -2
v 1 7 -3
v 1 8 -2
v 1 8 -3
v 2 0 1
v 2 0 -0
v 2 1 1
v 2 1 -0
v 2 5 -2
v 2 5 -3
v 2 6 -2
v 2 6 -3
v 2 7 -2
v 2 7 -3
v 2 12 2
v 2 12 -1
v 2 13 2
v 2 13 -1
v 3 1 3
v 3 1 2
v 3 1 -2
v 3 4 4
v 3 4 3
v 3 4 2
v 3 5 4
v 3 5 3
v 3 5 2
v 3 5 -0
v 3 6 2
v 3 6 -0
v 3 7 3
v 3 7 2
v 3 7 -2
v 3 9 -2
v 3 10 -2
v 3 12 3
v 3 12 -2
v 4 4 3
v 4 4 2
v 4 5 3
v 4 5 2
v 4 5 -0
v 4 6 2
v 4 6 -0
v 4 9 -2
v 4 9 -3
v 4 10 -2
v 4 10 -3
v 1 4 4
v 1 5 4
v 3 4 4
v 3 5 4
v -3 1 3
v -3 7 3
v -3 12 3
v -2 7 3
v -2 12 3
v 1 4 3
v 1 5 3
v 3 1 3
v 3 4 3
v 3 5 3
v 3 7 3
v 3 12 3
v 4 4 3
v 4 5 3
v -2 12 2
v -2 13 2
v -1 12 2
v -1 13 2
v 2 12 2
v 2 13 2
v 3 5 2
v 3 6 2
v 4 5 2
v 4 6 2
v -4 5 1
v -4 6 1
v -3 5 1
v -3 6 1
v -2 0 1
v -2 1 1
v -1 0 1
v -1 1 1
v 1 0 1
v 1 1 1
v 2 0 1
v 2 1 1
v -4 4 -1
v -4 5 -1
v -3 4 -1
v -3 5 -1
v -4 9 -2
v -4 10 -2
v -3 9 -2
v -3 10 -2
v -2 0 -2
v -2 1 -2
v -1 0 -2
v -1 1 -2
v 3 9 -2
v 3 10 -2
v 4 9 -2
v 4 10 -2
v 3 4 2
v 3 5 2
v 4 4 2
v 4 5 2
v -2 0 -0
v -2 1 -0
v -1 0 -0
v -1 1 -0
v 1 0 -0
v 1 1 -0
v 2 0 -0
v 2 1 -0
v 3 5 -0
v 3 6 -0
v 4 5 -0
v 4 6 -0
v -4 5 -1
v -4 6 -1
v -3 5 -1
v -3 6 -1
v -2 12 -1
v -2 13 -1
v -1 12 -1
v -1 13 -1
v 1 12 -1
v 2 12 -1
v 2 13 -1
v -4 4 -2
v -4 5 -2
v -3 1 -2
v -3 4 -2
v -3 5 -2
v -3 7 -2
v -3 9 -2
v -3 10 -2
v -3 12 -2
v -2 1 -2
v -2 3 -2
v -2 4 -2
v -2 5 -2
v -2 7 -2
v -2 8 -2
v -2 9 -2
v -2 10 -2
v -2 12 -2
v -1 1 -2
v -1 3 -2
v -1 4 -2
v -1 7 -2
v -1 8 -2
v -1 9 -2
v -1 10 -2
v 0 1 -2
v 0 3 -2
v 1 3 -2
v 1 4 -2
v 1 5 -2
v 1 7 -2
v 1 8 -2
v 1 9 -2
v 1 10 -2
v 1 11 -2
v 1 12 -2
v 2 5 -2
v 2 6 -2
v 2 7 -2
v 2 8 -2
v 2 9 -2
v 2 10 -2
v 2 11 -2
v 2 12 -2
v 3 1 -2
v 3 7 -2
v 3 9 -2
v 3 10 -2
v 3 12 -2
v -4 9 -3
v -4 10 -3
v -3 4 -3
v -3 5 -3
v -2 0 -3
v -2 1 -3
v -2 3 -3
v -2 4 -3
v -2 5 -3
v -2 7 -3
v -2 9 -3
v -2 10 -3
v -1 0 -3
v -1 1 -3
v -1 3 -3
v -1 4 -3
v -1 5 -3
v -1 7 -3
v -1 8 -3
v -1 9 -3
v -1 10 -3
v 1 4 -3
v 1 5 -3
v 1 6 -3
v 1 7 -3
v 1 8 -3
v 1 9 -3
v 1 10 -3
v 2 5 -3
v 2 6 -3
v 2 7 -3
v 2 9 -3
v 2 10 -3
v 4 9 -3
v 4 10 -3
v -2 0 1
v -1 0 1
v 1 0 1
v 2 0 1
v -2 0 -0
v -1 0 -0
v 1 0 -0
v 2 0 -0
v -2 0 -2
v -1 0 -2
v -2 0 -3
v -1 0 -3
v -3 1 3
v 3 1 3
v -2 1 2
v 3 1 2
v -2 1 1
v -1 1 1
v 1 1 1
v 2 1 1
v -2 1 -0
v -1 1 -0
v 1 1 -0
v 2 1 -0
v -2 1 -1
v -1 1 -1
v 0 1 -1
v -3 1 -2
v -2 1 -2
v -1 1 -2
v 0 1 -2
v 3 1 -2
v 1 4 4
v 3 4 4
v 1 4 3
v 3 4 3
v 4 4 3
v 3 4 2
v 4 4 2
v -4 4 -1
v -3 4 -1
v -4 4 -2
v -3 4 -2
v -2 4 -2
v -1 4 -2
v 1 4 -2
v -3 4 -3
v -2 4 -3
v -1 4 -3
v 1 4 -3
v 3 5 2
v 4 5 2
v -4 5 1
v -3 5 1
v 3 5 -0
v 4 5 -0
v -4 5 -1
v -3 5 -1
v 1 5 -2
v 2 5 -2
v 1 5 -3
v 2 5 -3
v -4 9 -2
v -3 9 -2
v -2 9 -2
v -1 9 -2
v 1 9 -2
v 2 9 -2
v 3 9 -2
v 4 9 -2
v -4 9 -3
v -2 9 -3
v -1 9 -3
v 1 9 -3
v 2 9 -3
v 4 9 -3
v 1 5 4
v 3 5 4
v 1 5 3
v 3 5 3
v 4 5 3
v 3 5 2
v 4 5 2
v -4 5 -1
v -3 5 -1
v -4 5 -2
v -3 5 -2
v -2 5 -2
v -3 5 -3
v -2 5 -3
v 3 6 2
v 4 6 2
v -4 6 1
v -3 6 1
v 3 6 -0
v 4 6 -0
v -4 6 -1
v -3 6 -1
v -2 7 -2
v -1 7 -2
v 1 7 -2
v 2 7 -2
v -2 7 -3
v -1 7 -3
v 1 7 -3
v 2 7 -3
v -1 8 -2
v 1 8 -2
v -1 8 -3
v 1 8 -3
v -4 10 -2
v -3 10 -2
v -2 10 -2
v -1 10 -2
v 1 10 -2
v 2 10 -2
v 3 10 -2
v 4 10 -2
v -4 10 -3
v -2 10 -3
v -1 10 -3
v 1 10 -3
v 2 10 -3
v 4 10 -3
v -3 12 3
v -2 12 3
v 3 12 3
v -2 12 2
v -1 12 2
v 2 12 2
v -2 12 -1
v -1 12 -1
v 1 12 -1
v 2 12 -1
v -3 12 -2
v -2 12 -2
v 1 12 -2
v 2 12 -2
v 3 12 -2
v -2 13 2
v -1 13 2
v 2 13 2
v -2 13 -1
v -1 13 -1
v 2 13 -1

# faces
f 4/5/1 2/5/1 1/5/1
f 5/5/1 2/5/1 4/5/1
f 6/5/1 4/5/1 3/5/1
f 7/5/1 4/5/1 6/5/1
f 10/13/1 9/13/1 8/13/1
f 11/13/1 9/13/1 10/13/1
f 14/5/1 13/5/1 12/5/1
f 15/5/1 13/5/1 14/5/1
f 17/5/1 14/5/1 12/5/1
f 18/5/1 14/5/1 17/5/1
f 19/3/1 16/3/1 15/3/1
f 20/3/1 16/3/1 19/3/1
f 21/5/1 17/5/1 12/5/1
f 22/5/1 19/5/1 18/5/1
f 23/5/1 21/5/1 12/5/1
f 23/5/1 22/5/1 21/5/1
f 24/5/1 19/5/1 22/5/1
f 24/5/1 22/5/1 23/5/1
f 25/3/1 24/3/1 23/3/1
f 26/3/1 25/3/1 23/3/1
f 27/3/1 26/3/1 23/3/1
f 28/3/1 26/3/1 27/3/1
f 33/11/1 30/11/1 29/11/1
f 34/11/1 30/11/1 33/11/1
f 35/8/1 32/8/1 31/8/1
f 36/8/1 32/8/1 35/8/1
f 37/6/1 36/6/1 35/6/1
f 38/6/1 36/6/1 37/6/1
f 39/8/1 38/8/1 37/8/1
f 40/8/1 38/8/1 39/8/1
f 43/12/1 42/12/1 41/12/1
f 44/12/1 42/12/1 43/12/1
f 47/3/1 46/3/1 45/3/1
f 48/3/1 46/3/1 47/3/1
f 51/12/1 50/12/1 49/12/1
f 52/12/1 50/12/1 51/12/1
f 55/11/1 54/11/1 53/11/1
f 56/11/1 54/11/1 55/11/1
f 59/3/1 58/3/1 57/3/1
f 60/3/1 58/3/1 59/3/1
f 63/13/1 62/13/1 61/13/1
f 64/13/1 62/13/1 63/13/1
f 65/11/2 66/11/2 69/11/2
f 69/11/2 66/11/2 70/11/2
f 67/8/2 68/8/2 71/8/2
f 71/8/2 68/8/2 72/8/2
f 71/6/2 72/6/2 73/6/2
f 73/6/2 72/6/2 74/6/2
f 73/8/2 74/8/2 75/8/2
f 75/8/2 74/8/2 76/8/2
f 77/12/2 78/12/2 79/12/2
f 79/12/2 78/12/2 80/12/2
f 81/14/2 82/14/2 83/14/2
f 83/14/2 82/14/2 84/14/2
f 85/12/2 86/12/2 87/12/2
f 87/12/2 86/12/2 88/12/2
f 89/11/2 90/11/2 91/11/2
f 91/11/2 90/11/2 92/11/2
f 93/14/2 94/14/2 95/14/2
f 95/14/2 94/14/2 96/14/2
f 95/12/2 96/12/2 97/12/2
f 97/12/2 96/12/2 98/12/2
f 99/2/2 100/2/2 101/2/2
f 101/2/2 100/2/2 102/2/2
f 103/5/2 104/5/2 107/5/2
f 104/4/2 105/4/2 108/4/2
f 107/5/2 104/5/2 108/5/2
f 106/3/2 107/3/2 109/3/2
f 109/3/2 107/3/2 110/3/2
f 108/4/2 105/4/2 111/4/2
f 111/4/2 105/4/2 112/4/2
f 110/5/2 111/5/2 113/5/2
f 112/4/2 105/4/2 114/4/2
f 110/5/2 113/5/2 115/5/2
f 113/4/2 114/4/2 116/4/2
f 115/5/2 113/5/2 116/5/2
f 114/4/2 105/4/2 117/4/2
f 116/4/2 114/4/2 117/4/2
f 115/2/2 116/2/2 118/2/2
f 116/2/2 117/2/2 118/2/2
f 115/2/2 118/2/2 119/2/2
f 115/2/2 119/2/2 120/2/2
f 120/2/2 119/2/2 121/2/2
f 122/5/2 123/5/2 124/5/2
f 124/5/2 123/5/2 125/5/2
f 125/5/2 126/5/2 127/5/2
f 127/5/2 126/5/2 128/5/2
f 129/12/2 130/12/2 131/12/2
f 131/12/2 130/12/2 132/12/2
f 135/3/3 134/3/3 133/3/3
f 136/3/3 134/3/3 135/3/3
f 140/5/3 138/5/3 137/5/3
f 140/3/3 139/3/3 138/3/3
f 141/3/3 139/3/3 140/3/3
f 142/5/3 140/5/3 137/5/3
f 143/5/3 140/5/3 142/5/3
f 144/5/3 142/5/3 137/5/3
f 145/5/3 142/5/3 144/5/3
f 146/5/3 140/5/3 143/5/3
f 147/2/3 141/2/3 140/2/3
f 147/5/3 140/5/3 146/5/3
f 148/2/3 141/2/3 147/2/3
f 149/5/3 146/5/3 145/5/3
f 150/5/3 146/5/3 149/5/3
f 153/3/3 152/3/3 151/3/3
f 154/3/3 152/3/3 153/3/3
f 155/2/3 154/2/3 153/2/3
f 156/2/3 154/2/3 155/2/3
f 159/5/3 158/5/3 157/5/3
f 160/5/3 158/5/3 159/5/3
f 163/5/3 162/5/3 161/5/3
f 164/5/3 162/5/3 163/5/3
f 167/11/3 166/11/3 165/11/3
f 168/11/3 166/11/3 167/11/3
f 171/11/3 170/11/3 169/11/3
f 172/11/3 170/11/3 171/11/3
f 175/5/3 174/5/3 173/5/3
f 176/5/3 174/5/3 175/5/3
f 179/13/3 178/13/3 177/13/3
f 180/13/3 178/13/3 179/13/3
f 183/8/3 182/8/3 181/8/3
f 184/8/3 182/8/3 183/8/3
f 187/12/3 186/12/3 185/12/3
f 188/12/3 186/12/3 187/12/3
f 189/5/4 190/5/4 191/5/4
f 191/5/4 190/5/4 192/5/4
f 193/11/4 194/11/4 195/11/4
f 195/11/4 194/11/4 196/11/4
f 197/11/4 198/11/4 199/11/4
f 199/11/4 198/11/4 200/11/4
f 201/5/4 202/5/4 203/5/4
f 203/5/4 202/5/4 204/5/4
f 205/5/4 206/5/4 207/5/4
f 207/5/4 206/5/4 208/5/4
f 209/3/4 210/3/4 211/3/4
f 211/3/4 210/3/4 212/3/4
f 211/2/4 212/2/4 213/2/4
f 213/2/4 212/2/4 214/2/4
f 214/2/4 212/2/4 215/2/4
f 216/5/4 217/5/4 219/5/4
f 219/5/4 217/5/4 220/5/4
f 218/5/4 219/5/4 225/5/4
f 225/5/4 219/5/4 226/5/4
f 226/5/4 219/5/4 227/5/4
f 220/5/4 221/5/4 228/5/4
f 221/3/4 222/3/4 229/3/4
f 228/5/4 221/5/4 229/5/4
f 229/3/4 222/3/4 230/3/4
f 230/3/4 222/3/4 231/3/4
f 223/3/4 224/3/4 232/3/4
f 232/3/4 224/3/4 233/3/4
f 229/3/4 230/3/4 237/3/4
f 230/15/4 231/15/4 238/15/4
f 237/3/4 230/3/4 238/3/4
f 238/15/4 231/15/4 239/15/4
f 232/2/4 233/2/4 240/2/4
f 235/5/4 236/5/4 241/5/4
f 234/5/4 235/5/4 241/5/4
f 241/5/4 236/5/4 242/5/4
f 241/4/4 242/4/4 243/4/4
f 242/5/4 236/5/4 243/5/4
f 243/5/4 236/5/4 244/5/4
f 238/2/4 239/2/4 247/2/4
f 239/2/4 240/2/4 247/2/4
f 247/2/4 240/2/4 248/2/4
f 240/2/4 233/2/4 249/2/4
f 248/2/4 240/2/4 249/2/4
f 249/2/4 233/2/4 250/2/4
f 250/2/4 233/2/4 251/2/4
f 244/4/4 245/4/4 252/4/4
f 243/4/4 244/4/4 252/4/4
f 246/2/4 247/2/4 254/2/4
f 247/15/4 248/15/4 255/15/4
f 254/2/4 247/2/4 255/2/4
f 255/15/4 248/15/4 256/15/4
f 249/2/4 250/2/4 257/2/4
f 250/1/4 251/1/4 258/1/4
f 257/2/4 250/2/4 258/2/4
f 258/1/4 251/1/4 259/1/4
f 253/4/4 254/4/4 260/4/4
f 241/4/4 243/4/4 260/4/4
f 252/4/4 253/4/4 260/4/4
f 243/4/4 252/4/4 260/4/4
f 255/2/4 256/2/4 261/2/4
f 260/4/4 254/4/4 261/4/4
f 254/2/4 255/2/4 261/2/4
f 261/2/4 256/2/4 262/2/4
f 258/2/4 259/2/4 263/2/4
f 257/2/4 258/2/4 263/2/4
f 263/2/4 259/2/4 264/2/4
f 267/3/4 268/3/4 272/3/4
f 272/3/4 268/3/4 273/3/4
f 265/13/4 266/13/4 275/13/4
f 275/13/4 266/13/4 276/13/4
f 269/8/4 270/8/4 277/8/4
f 270/6/4 271/6/4 278/6/4
f 277/8/4 270/8/4 278/8/4
f 271/8/4 272/8/4 279/8/4
f 278/6/4 271/6/4 279/6/4
f 272/3/4 273/3/4 280/3/4
f 279/8/4 272/8/4 280/8/4
f 273/12/4 274/12/4 281/12/4
f 280/3/4 273/3/4 281/3/4
f 281/12/4 274/12/4 282/12/4
f 275/12/4 276/12/4 284/12/4
f 284/12/4 276/12/4 285/12/4
f 280/14/4 281/14/4 286/14/4
f 281/12/4 282/12/4 287/12/4
f 286/14/4 281/14/4 287/14/4
f 282/12/4 283/12/4 287/12/4
f 287/12/4 283/12/4 288/12/4
f 288/12/4 283/12/4 289/12/4
f 289/12/4 283/12/4 290/12/4
f 287/14/4 288/14/4 293/14/4
f 288/12/4 289/12/4 294/12/4
f 293/14/4 288/14/4 294/14/4
f 294/12/4 289/12/4 295/12/4
f 291/13/4 292/13/4 296/13/4
f 296/13/4 292/13/4 297/13/4
f 296/12/4 297/12/4 298/12/4
f 298/12/4 297/12/4 299/12/4
f 304/11/5 301/11/5 300/11/5
f 305/11/5 301/11/5 304/11/5
f 306/11/5 303/11/5 302/11/5
f 307/11/5 303/11/5 306/11/5
f 310/8/5 309/8/5 308/8/5
f 311/8/5 309/8/5 310/8/5
f 314/5/5 313/5/5 312/5/5
f 315/5/5 313/5/5 314/5/5
f 316/5/5 314/5/5 312/5/5
f 316/4/5 315/4/5 314/4/5
f 317/4/5 315/4/5 316/4/5
f 318/4/5 315/4/5 317/4/5
f 319/4/5 315/4/5 318/4/5
f 320/5/5 316/5/5 312/5/5
f 321/4/5 318/4/5 317/4/5
f 322/4/5 318/4/5 321/4/5
f 323/4/5 315/4/5 319/4/5
f 324/4/5 322/4/5 321/4/5
f 324/4/5 323/4/5 322/4/5
f 324/5/5 320/5/5 312/5/5
f 324/4/5 321/4/5 320/4/5
f 325/4/5 323/4/5 324/4/5
f 326/4/5 323/4/5 325/4/5
f 327/5/5 324/5/5 312/5/5
f 328/11/5 325/11/5 324/11/5
f 328/5/5 324/5/5 327/5/5
f 329/5/5 326/5/5 325/5/5
f 329/11/5 325/11/5 328/11/5
f 330/4/5 323/4/5 326/4/5
f 330/5/5 326/5/5 329/5/5
f 331/4/5 315/4/5 323/4/5
f 331/4/5 323/4/5 330/4/5
f 334/3/5 333/3/5 332/3/5
f 335/3/5 333/3/5 334/3/5
f 337/5/5 336/5/5 335/5/5
f 338/5/5 336/5/5 337/5/5
f 341/5/5 340/5/5 339/5/5
f 342/5/5 340/5/5 341/5/5
f 346/3/5 343/3/5 342/3/5
f 347/3/5 343/3/5 346/3/5
f 348/14/5 345/14/5 344/14/5
f 349/14/5 345/14/5 348/14/5
f 354/5/5 351/5/5 350/5/5
f 355/5/5 351/5/5 354/5/5
f 356/5/5 353/5/5 352/5/5
f 357/5/5 353/5/5 356/5/5
f 360/14/5 359/14/5 358/14/5
f 361/14/5 359/14/5 360/14/5
f 370/13/5 363/13/5 362/13/5
f 370/13/5 364/13/5 363/13/5
f 371/12/5 365/12/5 364/12/5
f 371/13/5 364/13/5 370/13/5
f 372/12/5 365/12/5 371/12/5
f 373/13/5 367/13/5 366/13/5
f 374/12/5 369/12/5 368/12/5
f 374/13/5 367/13/5 373/13/5
f 374/12/5 368/12/5 367/12/5
f 375/12/5 369/12/5 374/12/5
f 376/3/6 377/3/6 378/3/6
f 378/3/6 377/3/6 379/3/6
f 379/5/6 380/5/6 381/5/6
f 381/5/6 380/5/6 382/5/6
f 383/5/6 384/5/6 385/5/6
f 385/5/6 384/5/6 386/5/6
f 386/3/6 387/3/6 388/3/6
f 388/3/6 387/3/6 389/3/6
f 390/5/6 391/5/6 394/5/6
f 394/5/6 391/5/6 395/5/6
f 392/5/6 393/5/6 396/5/6
f 396/5/6 393/5/6 397/5/6
f 398/12/6 399/12/6 402/12/6
f 402/12/6 399/12/6 403/12/6
f 400/12/6 401/12/6 404/12/6
f 404/12/6 401/12/6 405/12/6
f 406/12/6 407/12/6 408/12/6
f 408/12/6 407/12/6 409/12/6
f 410/13/6 411/13/6 418/13/6
f 411/13/6 412/13/6 418/13/6
f 412/12/6 413/12/6 419/12/6
f 418/13/6 412/13/6 419/13/6
f 419/12/6 413/12/6 420/12/6
f 414/13/6 415/13/6 421/13/6
f 416/12/6 417/12/6 422/12/6
f 421/13/6 415/13/6 422/13/6
f 415/12/6 416/12/6 422/12/6
f 422/12/6 417/12/6 423/12/6
f 424/3/6 425/3/6 427/3/6
f 425/2/6 426/2/6 427/2/6
f 427/2/6 426/2/6 428/2/6
f 428/2/6 426/2/6 429/2/6
f 424/3/6 427/3/6 430/3/6
f 429/2/6 426/2/6 433/2/6
f 424/3/6 430/3/6 434/3/6
f 431/2/6 432/2/6 435/2/6
f 434/3/6 430/3/6 435/3/6
f 430/2/6 431/2/6 435/2/6
f 432/1/6 433/1/6 436/1/6
f 435/2/6 432/2/6 436/2/6
f 433/2/6 426/2/6 437/2/6
f 436/1/6 433/1/6 437/1/6
f 437/2/6 426/2/6 438/2/6
f 439/3/6 440/3/6 442/3/6
f 440/2/6 441/2/6 443/2/6
f 442/3/6 440/3/6 443/3/6
f 443/2/6 441/2/6 444/2/6
